<svg width="48" height="48" viewBox="0 0 48 48" fill="none" xmlns="http://www.w3.org/2000/svg">
<path d="M38.1429 6H9.85714C7.72768 6 6 7.72768 6 9.85714V38.1429C6 40.2723 7.72768 42 9.85714 42H38.1429C40.2723 42 42 40.2723 42 38.1429V9.85714C42 7.72768 40.2723 6 38.1429 6ZM28.283 36.833C27.608 36.9536 27.3589 36.5357 27.3589 36.1902C27.3589 35.7563 27.375 33.5384 27.375 31.7464C27.375 30.4929 26.9571 29.6973 26.467 29.2795C29.4402 28.95 32.5741 28.5402 32.5741 23.4054C32.5741 21.9429 32.0518 21.2116 31.2 20.2714C31.3366 19.9259 31.7946 18.5036 31.0634 16.6554C29.9464 16.3098 27.3911 18.0937 27.3911 18.0937C26.3304 17.7964 25.1813 17.6437 24.0482 17.6437C22.9152 17.6437 21.7661 17.7964 20.7054 18.0937C20.7054 18.0937 18.15 16.3098 17.033 16.6554C16.3018 18.4955 16.7518 19.9179 16.8964 20.2714C16.0446 21.2116 15.6429 21.9429 15.6429 23.4054C15.6429 28.5161 18.6402 28.95 21.6134 29.2795C21.2277 29.625 20.8821 30.2196 20.7616 31.0714C19.9982 31.417 18.0455 32.0116 16.8804 29.9545C16.1491 28.6848 14.8313 28.5804 14.8313 28.5804C13.5295 28.5643 14.7429 29.4 14.7429 29.4C15.6107 29.8018 16.2214 31.3446 16.2214 31.3446C17.0009 33.7312 20.7295 32.9277 20.7295 32.9277C20.7295 34.0446 20.7455 35.8607 20.7455 36.1902C20.7455 36.5357 20.5045 36.9536 19.8214 36.833C14.5179 35.0571 10.8054 30.0107 10.8054 24.1125C10.8054 16.7357 16.4464 11.1348 23.8232 11.1348C31.2 11.1348 37.1786 16.7357 37.1786 24.1125C37.1866 30.0107 33.5866 35.0652 28.283 36.833ZM20.4 31.9232C20.2473 31.9554 20.1027 31.8911 20.0866 31.7866C20.0705 31.6661 20.175 31.5616 20.3277 31.5295C20.4804 31.5134 20.625 31.5777 20.6411 31.6821C20.6652 31.7866 20.5607 31.8911 20.4 31.9232ZM19.6366 31.8509C19.6366 31.9554 19.5161 32.0438 19.3554 32.0438C19.1786 32.0598 19.058 31.9714 19.058 31.8509C19.058 31.7464 19.1786 31.658 19.3393 31.658C19.492 31.642 19.6366 31.7304 19.6366 31.8509ZM18.5357 31.7625C18.5036 31.867 18.3429 31.9152 18.2062 31.867C18.0536 31.8348 17.9491 31.7143 17.9813 31.6098C18.0134 31.5054 18.1741 31.4571 18.3107 31.4893C18.4714 31.5375 18.5759 31.658 18.5357 31.7625ZM17.5473 31.3286C17.475 31.417 17.3223 31.4009 17.2018 31.2804C17.0812 31.1759 17.0491 31.0232 17.1295 30.9509C17.2018 30.8625 17.3545 30.8786 17.475 30.9991C17.5795 31.1036 17.6196 31.2643 17.5473 31.3286ZM16.8161 30.5973C16.7438 30.6455 16.6071 30.5973 16.5187 30.4768C16.4304 30.3563 16.4304 30.2196 16.5187 30.1634C16.6071 30.0911 16.7438 30.1473 16.8161 30.2679C16.9045 30.3884 16.9045 30.533 16.8161 30.5973ZM16.2938 29.8179C16.2214 29.8902 16.1009 29.85 16.0125 29.7696C15.9241 29.6652 15.908 29.5446 15.9804 29.4884C16.0527 29.4161 16.1732 29.4562 16.2616 29.5366C16.35 29.6411 16.3661 29.7616 16.2938 29.8179ZM15.7554 29.2232C15.7232 29.2955 15.6187 29.3116 15.5304 29.2554C15.4259 29.2071 15.3777 29.1187 15.4098 29.0464C15.442 28.9982 15.5304 28.9741 15.6348 29.0143C15.7393 29.0705 15.7875 29.1589 15.7554 29.2232Z" fill="#141C3A"/>
</svg>
