<svg width="42" height="30" viewBox="0 0 42 30" fill="none" xmlns="http://www.w3.org/2000/svg">
<path fill-rule="evenodd" clip-rule="evenodd" d="M1.79995 0.599976C0.916303 0.599976 0.199951 1.31633 0.199951 2.19998C0.199951 3.08362 0.916303 3.79998 1.79995 3.79998H40.1999C41.0835 3.79998 41.7999 3.08362 41.7999 2.19998C41.7999 1.31633 41.0835 0.599976 40.1999 0.599976H1.79995ZM0.199951 15C0.199951 14.1163 0.916303 13.4 1.79995 13.4H40.1999C41.0835 13.4 41.7999 14.1163 41.7999 15C41.7999 15.8836 41.0835 16.6 40.1999 16.6H1.79995C0.916303 16.6 0.199951 15.8836 0.199951 15ZM0.199951 27.8C0.199951 26.9165 0.916303 26.2 1.79995 26.2H40.1999C41.0835 26.2 41.7999 26.9165 41.7999 27.8C41.7999 28.6835 41.0835 29.4 40.1999 29.4H1.79995C0.916303 29.4 0.199951 28.6835 0.199951 27.8Z" fill="black"/>
</svg>
