<svg width="48" height="48" viewBox="0 0 48 48" fill="none" xmlns="http://www.w3.org/2000/svg">
<path d="M38 6H10C7.79 6 6 7.79 6 10V38C6 40.21 7.79 42 10 42H38C40.21 42 42 40.21 42 38V10C42 7.79 40.21 6 38 6ZM18 34H12.954V20H18V34ZM15.388 17.434C13.846 17.434 12.816 16.406 12.816 15.034C12.816 13.662 13.844 12.634 15.558 12.634C17.1 12.634 18.13 13.662 18.13 15.034C18.13 16.406 17.102 17.434 15.388 17.434ZM36 34H31.116V26.348C31.116 24.232 29.814 23.744 29.326 23.744C28.838 23.744 27.21 24.07 27.21 26.348C27.21 26.674 27.21 34 27.21 34H22.164V20H27.21V21.954C27.86 20.814 29.162 20 31.604 20C34.046 20 36 21.954 36 26.348V34Z" fill="#141C3A"/>
</svg>
