<svg width="56" height="39" viewBox="0 0 56 39" fill="none" xmlns="http://www.w3.org/2000/svg">
<path d="M2.656 31V8.6H6.944L16.48 24.408H14.208L23.584 8.6H27.84L27.904 31H23.04L23.008 16.056H23.904L16.416 28.632H14.08L6.432 16.056H7.52V31H2.656Z" fill="#141C3A"/>
<path d="M27.296 25.88L27.008 19.896L37.728 8.6H43.488L33.824 19L30.944 22.072L27.296 25.88ZM22.656 31V8.6H27.808V31H22.656ZM37.984 31L30.016 21.24L33.408 17.56L44.032 31H37.984Z" fill="#141C3A"/>
<line x1="45.4909" y1="27.8109" x2="54.2952" y2="17.6875" stroke="#141C3A" stroke-width="4"/>
<line x1="54.433" y1="20.6247" x2="44.6339" y2="11.4608" stroke="#141C3A" stroke-width="4"/>
</svg>
